<?xml version="1.0" encoding="UTF-8"?>
<svg id="Layer_1" xmlns="http://www.w3.org/2000/svg" viewBox="0 0 32 32">
  <defs>
    <style>
      .cls-1 {
        fill: #231f20;
      }

      .cls-2 {
        fill: #fff;
      }
    </style>
  </defs>
  <circle class="cls-2" cx="16" cy="16" r="16"/>
  <g id="logo">
    <path class="cls-1" d="M15.06,27.64c.18-3.21-.05-6.44.07-9.66.06-1.65.2-3.28.18-4.93-.02-1.35.05-2.69,0-4.04-.02-.57.02-1.26.03-1.89,0-.35,0-.71,0-1.06,0-.21.01-.49-.06-.69v-.02c-.17.04-.09,1.44-.04,1.58v.02s.04-.12.05-.15l-.04-.72c-.03,2.11-.17,4.21.1,6.32.13,1.04.41,2.07,1.01,2.94.36.52.83.94,1.31,1.34.24.2.47.4.72.59.2.15.47.24.62.44v-1.31c-.39-.12-.75-.23-1.17-.25-.48-.02-.96.05-1.42.15-.79.17-1.58.39-2.34.66-1.53.55-2.95,1.42-3.93,2.74-.44.6-.76,1.24-.81,1.99-.05.84-.02,1.7.17,2.53.33,1.43,1.15,2.61,2.39,3.39,1.33.84,3,1.2,4.56,1,1.7-.22,3.06-1.26,3.96-2.68.4-.63.78-1.31.87-2.06.09-.81.09-1.74-.23-2.5-.62-1.45-2.15-2.14-3.66-2.08-1.71.07-3.43.85-4.52,2.18-.56.68-.95,1.45-1.05,2.33-.11.93-.06,1.9.05,2.83.03.23.05-.19.05-.22.01-.27.02-.56-.01-.83-.02-.2-.05-.4-.06-.6,0,.25.05-.28.07-.35.09-.39.25-.75.45-1.1.33-.55.75-1.05,1.24-1.47.97-.82,2.28-1.31,3.54-1.41s2.63.27,3.46,1.32c.22.28.4.59.51.93.03.08.04.17.07.25.11.29-.23.11.04-.38-.09.16-.1.41-.17.59-.26.66-.66,1.3-1.1,1.86-.88,1.11-2.1,1.87-3.52,2.06-1.32.18-2.74-.07-3.94-.65-1.12-.54-2.1-1.42-2.62-2.56-.13-.29-.23-.58-.31-.89-.04-.17-.08-.34-.12-.5-.02-.11-.03-.22-.05-.32-.07-.36.03.24-.02.28.06-.05.11-.46.15-.55.08-.21.18-.4.29-.59.18-.31.4-.6.64-.87,1-1.16,2.36-1.91,3.79-2.41.75-.26,1.52-.48,2.3-.63.42-.08.85-.13,1.28-.12s.78.13,1.17.25c-.04-.01.11-1.17,0-1.31-.13-.18-.34-.24-.52-.37-.2-.14-.39-.3-.59-.46-.44-.36-.89-.72-1.27-1.15-.65-.74-1.01-1.67-1.18-2.63-.33-1.79-.16-3.59-.14-5.39,0-.18-.06-.63-.04-.72-.08.48.01,1.04,0,1.54-.02.57-.04,1.14-.03,1.72.01,1.22-.02,2.43,0,3.65.02,1.51-.08,3-.15,4.5s-.08,3.03-.08,4.54c0,1.75.11,3.51.01,5.27-.01.25-.03.52,0,.77.02.16.03.21.05,0h0Z"/>
    <path class="cls-1" d="M22.69,27.78c.22,0,.75-.08.45-.38s-.95-.38-1.34-.38c-.22,0-.75.08-.45.38s.95.38,1.34.38h0Z"/>
    <path class="cls-1" d="M9.8,8.5c1.21-.66,2.42-1.27,3.72-1.73s2.59-.81,3.91-1.08,2.77-.47,4.17-.6c.65-.06,1.3-.1,1.95-.1s1.3.12,1.96.16c.21.01.96.09.86-.3-.09-.36-1.05-.5-1.31-.52-.8-.07-1.58-.21-2.38-.22-.75,0-1.51.04-2.26.1-1.49.12-2.98.34-4.45.64s-2.88.67-4.27,1.17-2.68,1.16-3.96,1.87c-.36.2.6.57.68.59.42.12.99.23,1.4,0h0Z"/>
    <path class="cls-1" d="M14.17,10.77c.85-.45,1.75-.82,2.69-1.05,1-.24,2-.19,3.01-.21.24,0,.81-.08.48-.41s-1.01-.4-1.44-.41c-1.27-.03-2.51-.03-3.75.26-1.08.25-2.09.69-3.07,1.21-.36.19.6.57.68.6.43.13.99.23,1.4,0h0Z"/>
  </g>
  <rect class="cls-1" x="4.25" y="16.44" width="21.99" height="1" transform="translate(-1.84 32.02) rotate(-89.44)"/>
</svg>